<?xml version="1.0" encoding="utf-8"?>
<!-- Generator: Adobe Illustrator 25.4.1, SVG Export Plug-In . SVG Version: 6.00 Build 0)  -->
<svg version="1.1" id="Layer_1" xmlns="http://www.w3.org/2000/svg" xmlns:xlink="http://www.w3.org/1999/xlink" x="0px" y="0px"
	 viewBox="0 0 115.1 115.3" style="enable-background:new 0 0 115.1 115.3;" xml:space="preserve">
<style type="text/css">
	.st0{fill:#CCAB47;stroke:#000E57;stroke-width:5;}
</style>
<path id="クラウドサービス_cloud-upload-alt-solid" class="st0" d="M93.2,52.8c3.1-8.1-0.9-17.2-9.1-20.4
	c-1.8-0.7-3.7-1-5.6-1c-3.1,0-6.2,0.9-8.7,2.7c-7.2-12.6-23.3-16.9-35.8-9.6c-8.1,4.7-13.1,13.4-13.1,22.7c0,0.4,0,0.9,0,1.3
	C8.5,52.8,2.1,66.3,6.4,78.6c3.3,9.5,12.3,15.8,22.3,15.8H89c11.6,0,21-9.4,21-21C110,63.4,103,54.8,93.2,52.8z M69.6,62.9H58.8
	v18.4c0,1.4-1.2,2.6-2.6,2.6h-7.9c-1.4,0-2.6-1.2-2.6-2.6V62.9H35c-1.4,0-2.6-1.2-2.6-2.6c0-0.7,0.3-1.4,0.8-1.9l17.3-17.3
	c1-1,2.7-1,3.7,0l17.3,17.3c1,1,1,2.7,0,3.7C70.9,62.6,70.3,62.9,69.6,62.9z"/>
</svg>
