<svg xmlns="http://www.w3.org/2000/svg" width="115.052" height="115.302" viewBox="0 0 115.052 115.302">
  <defs>
    <style>
      .cls-1 {
        fill: #ccab47;
        stroke: #000e57;
        stroke-width: 5px;
      }
    </style>
  </defs>
  <path id="配信管理_paper-plane-regular" class="cls-1" d="M94.566,1.416,5.19,52.957A10.312,10.312,0,0,0,6.415,71.413L30.972,81.575V99.708c0,9.969,12.719,14.072,18.606,6.145l9.41-12.7,24.041,9.926A10.335,10.335,0,0,0,97.166,95.11l12.762-83.188A10.332,10.332,0,0,0,94.566,1.416ZM41.285,99.708V85.829l7.863,3.244Zm45.676-6.166L53.917,79.9,84.039,36.436a3.444,3.444,0,0,0-5.092-4.555l-45.44,39.6L10.347,61.9,99.723,10.332Z" transform="translate(2.465 2.628)"/>
</svg>
