<?xml version="1.0" encoding="utf-8"?>
<!-- Generator: Adobe Illustrator 25.4.1, SVG Export Plug-In . SVG Version: 6.00 Build 0)  -->
<svg version="1.1" id="Layer_1" xmlns="http://www.w3.org/2000/svg" xmlns:xlink="http://www.w3.org/1999/xlink" x="0px" y="0px"
	 viewBox="0 0 115.1 115.3" style="enable-background:new 0 0 115.1 115.3;" xml:space="preserve">
<style type="text/css">
	.st0{fill:#CCAB47;stroke:#000E57;stroke-width:5;}
</style>
<path id="時間制限_hourglass-half-solid" class="st0" d="M94.1,113.5H21.9c-2.8,0-5.2-2.3-5.2-5.2v-3.4c0-2.8,2.3-5.2,5.2-5.2
	c0,0,0,0,0,0c0-19.5,11-36,26-41.2c-15-5.2-26-21.7-26-41.2c-2.8,0-5.2-2.3-5.2-5.2c0,0,0,0,0,0V8.7c0-2.8,2.3-5.2,5.2-5.2
	c0,0,0,0,0,0h72.2c2.8,0,5.2,2.3,5.2,5.2v3.4c0,2.8-2.3,5.2-5.2,5.2c0,19.5-11,36-26,41.2c15,5.2,26,21.7,26,41.2
	c2.8,0,5.2,2.3,5.2,5.2v3.4C99.2,111.2,96.9,113.5,94.1,113.5z M78,31H38c3.7,10.1,11.2,17.2,20,17.2S74.3,41.1,78,31z M78,86H38
	c-1.6,4.4-2.4,9.1-2.4,13.8h44.7C80.4,95.1,79.6,90.4,78,86L78,86z"/>
</svg>
