<?xml version="1.0" encoding="utf-8"?>
<!-- Generator: Adobe Illustrator 25.4.1, SVG Export Plug-In . SVG Version: 6.00 Build 0)  -->
<svg version="1.1" id="Layer_1" xmlns="http://www.w3.org/2000/svg" xmlns:xlink="http://www.w3.org/1999/xlink" x="0px" y="0px"
	 viewBox="0 0 115.1 115.3" style="enable-background:new 0 0 115.1 115.3;" xml:space="preserve">
<style type="text/css">
	.st0{fill:#CCAB47;stroke:#000E57;stroke-width:5;}
</style>
<path id="配布資料閲覧_tasks-solid" class="st0" d="M33.5,13.8c-1-1-2.5-1-3.5,0c0,0,0,0,0,0L16.9,26.9l-4.7-4.6
	c-1-1-2.5-1-3.5,0c0,0,0,0,0,0l-3.2,3.2c-1,1-1,2.5,0,3.5c0,0,0,0,0,0l9.8,9.8c1,1,2.6,1,3.6,0l3.2-3.2L37,20.7c1-1,1-2.5,0-3.5
	L33.5,13.8z M33.5,46.7c-1-1-2.5-1-3.5,0c0,0,0,0,0,0L16.9,59.8l-4.7-4.6c-1-1-2.5-1-3.5,0c0,0,0,0,0,0l-3.2,3.2c-1,1-1,2.5,0,3.5
	c0,0,0,0,0,0l9.8,9.8c1,1,2.6,1,3.6,0l3.2-3.2L37,53.6c1-1,1-2.5,0-3.5L33.5,46.7z M17.9,82.4c-5.5-0.1-9.9,4.3-10,9.8
	c-0.1,5.5,4.3,9.9,9.8,10c0.1,0,0.1,0,0.2,0c5.5,0,9.9-4.4,9.9-9.9C27.8,86.8,23.4,82.4,17.9,82.4z M107.1,85.7H47.6
	c-1.8,0-3.3,1.5-3.3,3.3v6.6c0,1.8,1.5,3.3,3.3,3.3H107c1.8,0,3.3-1.5,3.3-3.3V89C110.3,87.2,108.9,85.7,107.1,85.7L107.1,85.7z
	 M107.1,19.7H47.6c-1.8,0-3.3,1.5-3.3,3.3l0,0v6.6c0,1.8,1.5,3.3,3.3,3.3l0,0H107c1.8,0,3.3-1.5,3.3-3.3V23
	C110.4,21.2,108.9,19.7,107.1,19.7C107.1,19.7,107.1,19.7,107.1,19.7L107.1,19.7z M107.1,52.7H47.6c-1.8,0-3.3,1.5-3.3,3.3v6.6
	c0,1.8,1.5,3.3,3.3,3.3H107c1.8,0,3.3-1.5,3.3-3.3V56C110.3,54.2,108.9,52.7,107.1,52.7C107.1,52.7,107.1,52.7,107.1,52.7
	L107.1,52.7z"/>
</svg>
