<?xml version="1.0" encoding="utf-8"?>
<!-- Generator: Adobe Illustrator 25.4.1, SVG Export Plug-In . SVG Version: 6.00 Build 0)  -->
<svg version="1.1" id="Layer_1" xmlns="http://www.w3.org/2000/svg" xmlns:xlink="http://www.w3.org/1999/xlink" x="0px" y="0px"
	 viewBox="0 0 115.1 115.3" style="enable-background:new 0 0 115.1 115.3;" xml:space="preserve">
<style type="text/css">
	.st0{fill:#CCAB47;stroke:#000E57;stroke-width:5;}
</style>
<path id="テスト結果集計_poll-solid" class="st0" d="M97.3,8.5H18.7C12.8,8.5,8,13.3,8,19.2v78.6c0,5.9,4.8,10.7,10.7,10.7
	h78.6c5.9,0,10.7-4.8,10.7-10.7V19.2C108,13.3,103.2,8.5,97.3,8.5z M43.7,83.5c0,2-1.6,3.6-3.6,3.6c0,0,0,0,0,0H33
	c-2,0-3.6-1.6-3.6-3.6c0,0,0,0,0,0V54.9c0-2,1.6-3.6,3.6-3.6c0,0,0,0,0,0h7.1c2,0,3.6,1.6,3.6,3.6c0,0,0,0,0,0V83.5z M65.1,83.5
	c0,2-1.6,3.6-3.6,3.6c0,0,0,0,0,0h-7.1c-2,0-3.6-1.6-3.6-3.6c0,0,0,0,0,0v-50c0-2,1.6-3.6,3.6-3.6c0,0,0,0,0,0h7.1
	c2,0,3.6,1.6,3.6,3.6c0,0,0,0,0,0V83.5z M86.6,83.5c0,2-1.6,3.6-3.6,3.6c0,0,0,0,0,0h-7.1c-2,0-3.6-1.6-3.6-3.6c0,0,0,0,0,0V69.2
	c0-2,1.6-3.6,3.6-3.6c0,0,0,0,0,0H83c2,0,3.6,1.6,3.6,3.6c0,0,0,0,0,0L86.6,83.5z"/>
</svg>
