<?xml version="1.0" encoding="utf-8"?>
<!-- Generator: Adobe Illustrator 25.4.1, SVG Export Plug-In . SVG Version: 6.00 Build 0)  -->
<svg version="1.1" id="Layer_1" xmlns="http://www.w3.org/2000/svg" xmlns:xlink="http://www.w3.org/1999/xlink" x="0px" y="0px"
	 viewBox="0 0 115.1 115.3" style="enable-background:new 0 0 115.1 115.3;" xml:space="preserve">
<style type="text/css">
	.st0{fill:#CCAB47;stroke:#000E57;stroke-width:5;}
</style>
<path id="多言語対応_globe-solid" class="st0" d="M76,37.6C73,19,65.8,5.9,57.5,5.9S42.1,19,39.1,37.6H76z M37.5,57.7
	c0,4.5,0.2,8.9,0.7,13.4h38.7c0.5-4.4,0.7-8.9,0.7-13.4c0-4.5-0.2-8.9-0.7-13.4H38.2C37.7,48.7,37.5,53.2,37.5,57.7z M105.3,37.6
	c-6-14.3-18.1-25.1-33-29.5c5.1,7.1,8.6,17.7,10.4,29.5L105.3,37.6z M42.8,8.1C27.9,12.5,15.8,23.3,9.8,37.6h22.5
	C34.2,25.7,37.7,15.1,42.8,8.1L42.8,8.1z M107.5,44.3H83.6c0.4,4.4,0.7,8.9,0.7,13.4s-0.3,9-0.7,13.4h23.9c1.2-4.4,1.8-8.8,1.8-13.4
	C109.3,53.1,108.7,48.7,107.5,44.3z M30.8,57.7c0-4.5,0.3-9,0.7-13.4H7.6c-2.4,8.7-2.4,18,0,26.7h23.9
	C31.1,66.6,30.8,62.1,30.8,57.7z M39.1,77.7c3,18.6,10.2,31.7,18.5,31.7S73,96.3,76,77.7L39.1,77.7z M72.3,107.2
	c14.8-4.4,26.9-15.3,33-29.5H82.7C80.9,89.6,77.4,100.2,72.3,107.2z M9.8,77.7c6,14.3,18.1,25.1,33,29.5
	c-5.1-7.1-8.6-17.7-10.4-29.5L9.8,77.7L9.8,77.7z"/>
</svg>
